<?xml version="1.0" encoding="utf-8"?>
<!-- Generator: Adobe Illustrator 24.1.0, SVG Export Plug-In . SVG Version: 6.00 Build 0)  -->
<svg version="1.1" id="Layer_1" xmlns="http://www.w3.org/2000/svg" xmlns:xlink="http://www.w3.org/1999/xlink" x="0px" y="0px"
	 viewBox="0 0 100 100" style="enable-background:new 0 0 100 100;" xml:space="preserve">
<style type="text/css">
	.st0{fill:#050505;}
	.st1{fill:#FFFFFF;}
</style>
<rect class="st0" width="100" height="100"/>
<g>
	<path class="st1" d="M69,44.15c3.22,0.61,5.5,1.97,6.82,4.08c1.32,2.11,1.99,5.44,1.99,9.99c0,9.02-2.71,16.41-8.14,22.16
		C64.25,86.13,57.31,89,48.86,89c-3.33,0-6.56-0.6-9.7-1.8c-3.13-1.2-5.83-2.87-8.08-5.02c-2.58-2.36-4.51-4.86-5.8-7.49
		c-1.29-2.63-1.93-5.33-1.93-8.08c0-3.08,0.66-5.46,1.99-7.14c1.32-1.68,3.42-2.83,6.28-3.44c-0.54-1.25-0.93-2.31-1.18-3.17
		c-0.25-0.86-0.38-1.52-0.38-1.99c0-1.61,0.85-3.26,2.55-4.94c1.7-1.68,3.3-2.52,4.81-2.52c0.64,0,1.32,0.12,2.04,0.35
		c0.72,0.23,1.54,0.62,2.47,1.15c-2.76-7.81-4.76-13.83-6.02-18.08c-1.25-4.24-1.88-7.17-1.88-8.78c0-2.22,0.57-3.98,1.72-5.29
		c1.15-1.31,2.7-1.96,4.67-1.96c3.37,0,7.63,7.52,12.78,22.56c0.89,2.58,1.58,4.57,2.04,5.96c0.39-1.11,0.95-2.69,1.67-4.73
		c5.16-14.9,9.6-22.35,13.32-22.35c1.83,0,3.28,0.62,4.38,1.85c1.09,1.24,1.64,2.89,1.64,4.97c0,1.58-0.6,4.46-1.8,8.65
		C73.25,31.9,71.44,37.38,69,44.15z M30.54,66.06c0.5,0.61,1.2,1.5,2.09,2.69c2.36,3.26,4.55,4.89,6.55,4.89
		c0.68,0,1.29-0.21,1.83-0.64c0.54-0.43,0.81-0.88,0.81-1.34c0-0.54-0.36-1.43-1.07-2.69c-0.72-1.25-1.7-2.67-2.95-4.24
		c-1.43-1.83-2.62-3.16-3.57-4c-0.95-0.84-1.71-1.26-2.28-1.26c-1.25,0-2.41,0.67-3.46,2.01c-1.06,1.34-1.58,2.93-1.58,4.75
		c0,1.47,0.37,3.11,1.1,4.91c0.73,1.81,1.8,3.63,3.2,5.45c2.11,2.83,4.74,5,7.87,6.53c3.13,1.52,6.6,2.28,10.39,2.28
		c6.98,0,12.83-2.61,17.54-7.81c4.71-5.21,7.06-11.74,7.06-19.58c0-2.4-0.18-4.31-0.54-5.72c-0.36-1.41-0.95-2.44-1.77-3.09
		c-1.47-1.22-4.32-2.31-8.57-3.28c-4.24-0.97-8.67-1.45-13.29-1.45c-1.29,0-2.2,0.21-2.74,0.64c-0.54,0.43-0.81,1.16-0.81,2.2
		c0,2.44,1.36,4.2,4.08,5.29c2.72,1.09,7.13,1.64,13.21,1.64h2.2c0.5,0,0.9,0.19,1.21,0.56c0.3,0.38,0.51,0.94,0.62,1.69
		c-0.61,0.57-1.86,1.23-3.76,1.96c-1.9,0.73-3.35,1.46-4.35,2.18c-2.15,1.58-3.88,3.45-5.18,5.61c-1.31,2.17-1.96,4.22-1.96,6.15
		c0,1.18,0.28,2.61,0.83,4.27c0.56,1.67,0.83,2.69,0.83,3.09v0.38l-0.11,0.48c-1.58-0.11-2.82-1.03-3.73-2.77
		c-0.91-1.74-1.37-4.06-1.37-6.96v-0.48c-0.29,0.25-0.56,0.43-0.83,0.54c-0.27,0.11-0.56,0.16-0.89,0.16
		c-0.32,0-0.63-0.03-0.91-0.08c-0.29-0.05-0.61-0.13-0.97-0.24c0.11,0.39,0.19,0.78,0.24,1.15c0.05,0.38,0.08,0.67,0.08,0.89
		c0,1.32-0.52,2.46-1.56,3.41c-1.04,0.95-2.27,1.42-3.71,1.42c-2.26,0-4.55-1.1-6.88-3.3c-2.33-2.2-3.49-4.36-3.49-6.47
		c0-0.39,0.04-0.74,0.13-1.05C30.17,66.54,30.33,66.28,30.54,66.06z M46.66,67.35c0.61,0,1.16-0.28,1.67-0.83
		c0.5-0.56,0.75-1.15,0.75-1.8c0-0.68-0.49-2.26-1.48-4.75c-0.99-2.49-2.21-4.93-3.68-7.33c-1.07-1.79-2.13-3.14-3.17-4.06
		c-1.04-0.91-2.02-1.37-2.95-1.37c-0.75,0-1.58,0.48-2.5,1.42c-0.91,0.95-1.37,1.84-1.37,2.66c0,0.86,0.45,2.15,1.34,3.87
		c0.89,1.72,2.09,3.55,3.6,5.48c1.58,2.11,3.06,3.76,4.46,4.94C44.72,66.76,45.83,67.35,46.66,67.35z M51.92,41.41l-5.8-16.76
		c-1.5-4.26-2.67-7.04-3.49-8.35c-0.82-1.31-1.72-1.96-2.69-1.96c-0.75,0-1.36,0.29-1.83,0.86c-0.47,0.57-0.7,1.34-0.7,2.31
		c0,1.65,0.63,4.51,1.88,8.59c1.25,4.08,3.13,9.44,5.64,16.06c0.21-0.39,0.52-0.67,0.91-0.83c0.39-0.16,0.93-0.24,1.61-0.24
		c0.21,0,0.64,0.02,1.29,0.05C49.4,41.18,50.45,41.27,51.92,41.41z M57.99,57.68c-1.54-0.07-3-0.23-4.38-0.48
		c-1.38-0.25-2.69-0.61-3.95-1.07c0.57,1.15,1.08,2.29,1.53,3.44c0.45,1.15,0.81,2.27,1.1,3.38c0.86-1.07,1.76-2.05,2.71-2.93
		C55.96,59.14,56.95,58.37,57.99,57.68z M65.13,43.24c2.4-6.52,4.27-11.9,5.61-16.14c1.34-4.24,2.01-6.85,2.01-7.82
		c0-1.04-0.22-1.84-0.67-2.42C71.64,16.29,71.02,16,70.24,16c-1,0-2.02,0.83-3.06,2.5c-1.04,1.67-2.18,4.34-3.44,8.03l-5.37,15.52
		L65.13,43.24z"/>
</g>
<g>
</g>
<g>
</g>
<g>
</g>
<g>
</g>
<g>
</g>
<g>
</g>
<g>
</g>
<g>
</g>
<g>
</g>
<g>
</g>
<g>
</g>
<g>
</g>
<g>
</g>
<g>
</g>
<g>
</g>
</svg>
