<?xml version="1.0" encoding="utf-8"?>
<!-- Generator: Adobe Illustrator 24.1.0, SVG Export Plug-In . SVG Version: 6.00 Build 0)  -->
<svg version="1.1" id="Layer_1" xmlns="http://www.w3.org/2000/svg" xmlns:xlink="http://www.w3.org/1999/xlink" x="0px" y="0px"
	 viewBox="0 0 100 100" style="enable-background:new 0 0 100 100;" xml:space="preserve">
<style type="text/css">
	.st0{fill:#FFFFFF;}
</style>
<rect y="0" width="100" height="100"/>
<g>
	<g>
		<g>
			<polygon class="st0" points="62.04,18.17 61.71,13.53 18.12,16.6 22.23,75.09 26.17,74.82 26.17,24.36 73.94,24.36 73.94,78.43 
				78.72,78.95 85,20.65 			"/>
		</g>
	</g>
	<g>
		<g>
			<path class="st0" d="M30.24,28.43V83h39.62V28.43H30.24z M43.29,37.72c2.51,0,4.49,0.92,5.76,2.57l-2.73,2.44
				c-0.75-0.95-1.65-1.5-2.8-1.5c-1.8,0-3.01,1.25-3.01,3.21s1.21,3.21,3.01,3.21c1.15,0,2.05-0.55,2.8-1.5l2.73,2.44
				c-1.26,1.65-3.24,2.57-5.76,2.57c-4.12,0-7.15-2.77-7.15-6.71C36.15,40.49,39.17,37.72,43.29,37.72z M63.34,74.4H36.77v-4.07
				h26.57L63.34,74.4L63.34,74.4z M63.34,67.15H36.77v-4.07h26.57L63.34,67.15L63.34,67.15z M63.34,59.9H36.77v-4.07h26.57
				L63.34,59.9L63.34,59.9z M58.58,50.85h-4.25L48.9,38.01h4.66l3.06,7.5l3.13-7.5h4.25L58.58,50.85z"/>
		</g>
	</g>
</g>
<g>
</g>
<g>
</g>
<g>
</g>
<g>
</g>
<g>
</g>
<g>
</g>
<g>
</g>
<g>
</g>
<g>
</g>
<g>
</g>
<g>
</g>
<g>
</g>
<g>
</g>
<g>
</g>
<g>
</g>
</svg>
