<?xml version="1.0" encoding="utf-8"?>
<!-- Generator: Adobe Illustrator 24.1.0, SVG Export Plug-In . SVG Version: 6.00 Build 0)  -->
<svg version="1.1" id="Layer_1" xmlns="http://www.w3.org/2000/svg" xmlns:xlink="http://www.w3.org/1999/xlink" x="0px" y="0px"
	 viewBox="0 0 100 100" style="enable-background:new 0 0 100 100;" xml:space="preserve">
<style type="text/css">
	.st0{fill:#FFFFFF;}
</style>
<rect width="100" height="100"/>
<path class="st0" d="M24.27,17.3c-5.07,0-8.38,3.33-8.38,7.7c0,4.28,3.21,7.7,8.19,7.7h0.1c5.17,0,8.38-3.42,8.38-7.7
	C32.46,20.63,29.34,17.3,24.27,17.3z"/>
<path class="st0" d="M16.76,38.79h14.82v44.57H16.76V38.79z"/>
<path class="st0" d="M67.94,37.74c-7.99,0-13.35,7.51-13.35,7.51v-6.46H39.78v44.57h14.82V58.47c0-1.33,0.1-2.66,0.49-3.62
	c1.07-2.66,3.51-5.42,7.6-5.42c5.36,0,7.51,4.09,7.51,10.08v23.85H85V57.81C85,44.11,77.69,37.74,67.94,37.74z"/>
<g>
</g>
<g>
</g>
<g>
</g>
<g>
</g>
<g>
</g>
<g>
</g>
<g>
</g>
<g>
</g>
<g>
</g>
<g>
</g>
<g>
</g>
<g>
</g>
<g>
</g>
<g>
</g>
<g>
</g>
</svg>
