<?xml version="1.0" encoding="utf-8"?>
<!-- Generator: Adobe Illustrator 24.1.0, SVG Export Plug-In . SVG Version: 6.00 Build 0)  -->
<svg version="1.1" id="Layer_1" xmlns="http://www.w3.org/2000/svg" xmlns:xlink="http://www.w3.org/1999/xlink" x="0px" y="0px"
	 viewBox="0 0 100 100" style="enable-background:new 0 0 100 100;" xml:space="preserve">
<style type="text/css">
	.st0{fill:#FFFFFF;}
</style>
<rect class="st0" width="100" height="100"/>
<g>
	<path d="M41.79,15.73c-7.67,1.92-14.35,6.36-19.09,12.4h10.4C35.31,23.35,38.25,19.13,41.79,15.73z"/>
	<path d="M31.23,32.78H19.61c-2.44,4.39-3.96,9.35-4.3,14.63h13.21C28.74,42.29,29.68,37.34,31.23,32.78z"/>
	<path d="M62.3,28.13c-2.95-5.59-7.06-10.16-12.02-13.1c-4.95,2.95-9.06,7.52-12.02,13.1H62.3z"/>
	<path d="M36.17,66.7h28.24c1.71-4.49,2.75-9.45,2.99-14.63H33.18C33.42,57.25,34.46,62.21,36.17,66.7z"/>
	<path d="M64.41,32.78H36.17c-1.71,4.49-2.75,9.45-2.99,14.63h34.22C67.15,42.23,66.12,37.27,64.41,32.78z"/>
	<path d="M28.52,52.07H15.31c0.35,5.28,1.87,10.24,4.3,14.63h11.62C29.68,62.14,28.74,57.19,28.52,52.07z"/>
	<path d="M77.87,28.13c-4.74-6.04-11.42-10.49-19.09-12.4c3.53,3.4,6.48,7.62,8.69,12.4H77.87z"/>
	<path d="M72.05,47.41h13.21c-0.35-5.28-1.87-10.24-4.3-14.63H69.34C70.9,37.34,71.83,42.29,72.05,47.41z"/>
	<path d="M0,0v100h100V0H0z M78.37,77.82c-7.5,7.5-17.47,11.63-28.08,11.63s-20.58-4.13-28.08-11.63
		c-7.5-7.5-11.63-17.47-11.63-28.08c0-10.61,4.13-20.58,11.63-28.08c7.5-7.5,17.47-11.63,28.08-11.63h0
		c10.61,0,20.58,4.13,28.08,11.63C85.87,29.16,90,39.13,90,49.74C90,60.35,85.87,70.32,78.37,77.82z"/>
	<path d="M22.7,71.35c4.74,6.04,11.42,10.49,19.09,12.4c-3.53-3.4-6.48-7.62-8.69-12.4H22.7z"/>
	<path d="M69.34,66.7h11.62c2.44-4.39,3.96-9.35,4.3-14.63H72.05C71.83,57.19,70.9,62.14,69.34,66.7z"/>
	<path d="M38.27,71.35c2.95,5.59,7.06,10.16,12.02,13.1c4.95-2.95,9.06-7.52,12.02-13.1H38.27z"/>
	<path d="M58.79,83.75c7.67-1.92,14.35-6.36,19.09-12.4h-10.4C65.26,76.13,62.32,80.35,58.79,83.75z"/>
</g>
<g>
</g>
<g>
</g>
<g>
</g>
<g>
</g>
<g>
</g>
<g>
</g>
<g>
</g>
<g>
</g>
<g>
</g>
<g>
</g>
<g>
</g>
<g>
</g>
<g>
</g>
<g>
</g>
<g>
</g>
</svg>
